<?xml version="1.0" encoding="UTF-8" standalone="no"?>
<!-- Created with Inkscape (http://www.inkscape.org/) -->

<svg
   version="1.1"
   id="svg1"
   
   
   viewBox="0 0 552.1427 557"
   xmlns="http://www.w3.org/2000/svg">
  <defs
     id="defs1" />
  <g
     id="g1"
     transform="translate(-235.85733,-230)">
    <path
       style="fill:#000000"
       d="m 404.5,786.02091 c -1.1,-0.46878 -25.0625,-23.96296 -53.25,-52.2093 L 300,682.45464 v -46.10488 c 0,-37.78257 0.24691,-46.30979 1.36786,-47.24009 0.97783,-0.81153 11.59903,-1.06029 37.25,-0.87244 L 374.5,588.5 l 0.26246,36.23711 0.26246,36.23711 25.50114,25.8972 c 14.02562,14.24346 26.73252,26.40717 28.23754,27.03046 1.98101,0.82041 25.30169,1.05939 84.4796,0.86568 L 594.98639,714.5 621.4932,688.00708 648,661.51415 v -35.55707 c 0,-26.32217 0.31166,-35.86874 1.2,-36.75708 0.88839,-0.88839 10.44444,-1.2 36.8,-1.2 26.35556,0 35.91161,0.31161 36.8,1.2 0.89858,0.89858 1.2,12.7643 1.2,47.23934 v 46.03933 L 671.73934,734.73934 619.47867,787 512.98934,786.93661 C 454.4202,786.90175 405.6,786.48968 404.5,786.02091 Z M 237.16117,558.6942 c -0.86508,-1.04235 -1.5778,-25.89118 -1.20029,-41.8475 0.0215,-0.90932 7.57662,-8.16839 16.78912,-16.13127 9.97367,-8.6208 17.62038,-16.04309 18.90144,-18.3467 1.18329,-2.1278 3.12897,-7.24373 4.32374,-11.36873 3.73525,-12.89616 23.78305,-80.06473 33.72711,-113 5.2309,-17.325 10.09503,-32.625 10.8092,-34 0.71416,-1.375 2.47438,-3.59859 3.91159,-4.94131 4.91834,-4.59499 90.06296,-58.84227 90.99576,-57.97516 0.50536,0.46978 5.50614,29.78067 11.11285,65.13531 5.60671,35.35464 11.69204,73.61866 13.52295,85.03116 l 3.32893,20.75 h 9.80822 C 461.28522,432 463,431.73522 463,430.48551 463,428.4451 458.30017,382.43577 450.48816,308 c -3.54993,-33.825 -6.73435,-64.26515 -7.07651,-67.64477 -0.54612,-5.39418 -0.36495,-6.40193 1.48312,-8.25 C 446.99125,230.00875 447.26625,230 511.04545,230 h 64.04546 l 2.51375,2.51376 c 2.14694,2.14693 2.43015,3.13192 1.94078,6.75 -0.31515,2.32993 -4.613,44.51124 -9.55079,93.73624 -4.93779,49.225 -9.24882,91.6375 -9.58006,94.25 l -0.60227,4.75 h 9.53483 c 5.24415,0 9.77675,-0.39145 10.07244,-0.8699 0.47267,-0.76479 15.4376,-93.0008 23.62792,-145.6301 3.7362,-24.0081 3.84499,-24.5 5.41866,-24.5 1.182,0 78.29946,49.10775 87.47615,55.70408 2.10893,1.51593 4.74821,4.11517 5.86507,5.77608 1.98566,2.95295 8.75163,24.73405 31.22494,100.51984 6.11609,20.625 12.50841,42.11628 14.20517,47.75839 3.7371,12.42676 4.87276,13.86427 24.38199,30.86273 7.92,6.90072 14.84561,13.37941 15.39025,14.39708 0.55318,1.03363 0.99026,10.16732 0.99026,20.69355 0,15.43613 -0.28147,19.2451 -1.5567,21.06574 L 784.88659,560 H 511.56574 c -223.66565,0 -273.51773,-0.23723 -274.40457,-1.3058 z"
       id="path2" />
  </g>
</svg>
